<svg width="32" height="48" viewBox="0 0 32 48" fill="none" xmlns="http://www.w3.org/2000/svg">
<path d="M16 0C7.16016 0 0 7.16016 0 16C0 23.3086 3.85937 31.1641 7.65625 37.25C11.4531 43.3359 15.25 47.6562 15.25 47.6562C15.4414 47.8711 15.7148 47.9961 16 47.9961C16.2852 47.9961 16.5586 47.8711 16.75 47.6562C16.75 47.6562 20.5508 43.2461 24.3437 37.125C28.1367 31.0039 32 23.168 32 16C32 7.16016 24.8398 0 16 0ZM16 2C23.7617 2 30 8.23828 30 16C30 22.4336 26.3633 30.082 22.6562 36.0625C19.5508 41.0742 16.9219 44.3008 16 45.4062C15.0703 44.3086 12.4414 41.1523 9.34375 36.1875C5.64062 30.25 2 22.5898 2 16C2 8.23828 8.23828 2 16 2ZM16 10C12.1445 10 9 13.1445 9 17C9 20.8555 12.1445 24 16 24C19.8555 24 23 20.8555 23 17C23 13.1445 19.8555 10 16 10ZM16 12C18.7734 12 21 14.2266 21 17C21 19.7734 18.7734 22 16 22C13.2266 22 11 19.7734 11 17C11 14.2266 13.2266 12 16 12Z" fill="#333333"/>
<path fill-rule="evenodd" clip-rule="evenodd" d="M16 2C23.7617 2 30 8.23828 30 16C30 22.4336 26.3633 30.082 22.6562 36.0625C19.5508 41.0742 16.9219 44.3008 16 45.4062C15.0703 44.3086 12.4414 41.1523 9.34375 36.1875C5.64062 30.25 2 22.5898 2 16C2 8.23828 8.23828 2 16 2ZM9 17C9 13.1445 12.1445 10 16 10C19.8555 10 23 13.1445 23 17C23 20.8555 19.8555 24 16 24C12.1445 24 9 20.8555 9 17Z" fill="#333333"/>
</svg>
